<svg xmlns="http://www.w3.org/2000/svg" viewBox="0 0 64 64">
  <rect width="64" height="64" fill="#F7F4EF"/>
  <circle cx="32" cy="32" r="25" fill="none" stroke="#6D3A3C" stroke-width="2"/>
  <path fill="#361319" d="M17 45V19h8.2c6.6 0 10.4 2.4 10.4 7.1 0 2.8-1.5 4.9-4.3 6.1 3.8.9 5.9 3.2 5.9 6.5 0 4.1-3.4 6.3-9.8 6.3H17Zm6.1-15.1h2.5c2.7 0 4-1.1 4-3.2 0-2-1.4-3-4.2-3h-2.3v6.2Zm0 10.5h3.3c3 0 4.5-1.1 4.5-3.4 0-2.2-1.6-3.3-4.8-3.3h-3v6.7Z"/>
  <path fill="#6D3A3C" d="M40 45V19h7c7.2 0 11.4 5 11.4 12.9S54.2 45 47 45h-7Zm5.4-4.8h1.2c4.1 0 6.2-2.8 6.2-8.3 0-5.4-2.1-8.1-6.2-8.1h-1.2v16.4Z"/>
</svg>
